<mxfile host="app.diagrams.net" modified="2024-01-23T14:40:38.106Z" agent="Mozilla/5.0 (Windows NT 10.0; Win64; x64) AppleWebKit/537.36 (KHTML, like Gecko) Chrome/120.0.0.0 Safari/537.36 OPR/106.0.0.0" etag="Qb4pyKGWJc9-3UP3REdS" version="22.1.21" type="device">
  <diagram name="Strona-1" id="HcA03twAWQQR_1r8djgq">
    <mxGraphModel dx="1073" dy="608" grid="1" gridSize="10" guides="1" tooltips="1" connect="1" arrows="1" fold="1" page="1" pageScale="1" pageWidth="827" pageHeight="1169" math="0" shadow="0">
      <root>
        <mxCell id="0" />
        <mxCell id="1" parent="0" />
        <mxCell id="YaIeWCz2grbQUSvChIVx-1" value="Utworzone" style="html=1;verticalAlign=bottom;startArrow=circle;startFill=1;endArrow=open;startSize=6;endSize=8;curved=0;rounded=0;entryX=0;entryY=0.5;entryDx=0;entryDy=0;" edge="1" parent="1" target="YaIeWCz2grbQUSvChIVx-3">
          <mxGeometry width="80" relative="1" as="geometry">
            <mxPoint x="50" y="230" as="sourcePoint" />
            <mxPoint x="140" y="230" as="targetPoint" />
          </mxGeometry>
        </mxCell>
        <mxCell id="YaIeWCz2grbQUSvChIVx-3" value="Zamknięte" style="html=1;whiteSpace=wrap;" vertex="1" parent="1">
          <mxGeometry x="150" y="210" width="110" height="40" as="geometry" />
        </mxCell>
        <mxCell id="YaIeWCz2grbQUSvChIVx-4" value="Otwarte" style="html=1;whiteSpace=wrap;" vertex="1" parent="1">
          <mxGeometry x="150" y="330" width="110" height="40" as="geometry" />
        </mxCell>
        <mxCell id="YaIeWCz2grbQUSvChIVx-5" value="Zakończone" style="html=1;whiteSpace=wrap;" vertex="1" parent="1">
          <mxGeometry x="150" y="430" width="110" height="40" as="geometry" />
        </mxCell>
        <mxCell id="YaIeWCz2grbQUSvChIVx-15" style="edgeStyle=orthogonalEdgeStyle;rounded=0;orthogonalLoop=1;jettySize=auto;html=1;entryX=0;entryY=0.5;entryDx=0;entryDy=0;" edge="1" parent="1" source="YaIeWCz2grbQUSvChIVx-6" target="YaIeWCz2grbQUSvChIVx-13">
          <mxGeometry relative="1" as="geometry" />
        </mxCell>
        <mxCell id="YaIeWCz2grbQUSvChIVx-6" value="Usunięte" style="html=1;whiteSpace=wrap;" vertex="1" parent="1">
          <mxGeometry x="390" y="210" width="110" height="40" as="geometry" />
        </mxCell>
        <mxCell id="YaIeWCz2grbQUSvChIVx-16" style="edgeStyle=orthogonalEdgeStyle;rounded=0;orthogonalLoop=1;jettySize=auto;html=1;entryX=0.5;entryY=0;entryDx=0;entryDy=0;" edge="1" parent="1" source="YaIeWCz2grbQUSvChIVx-7" target="YaIeWCz2grbQUSvChIVx-12">
          <mxGeometry relative="1" as="geometry" />
        </mxCell>
        <mxCell id="YaIeWCz2grbQUSvChIVx-7" value="Zaraportowane" style="html=1;whiteSpace=wrap;" vertex="1" parent="1">
          <mxGeometry x="150" y="530" width="110" height="45" as="geometry" />
        </mxCell>
        <mxCell id="YaIeWCz2grbQUSvChIVx-8" value="Obcena data = data rozpoczęcia" style="html=1;verticalAlign=bottom;endArrow=block;curved=0;rounded=0;exitX=0.5;exitY=1;exitDx=0;exitDy=0;entryX=0.5;entryY=0;entryDx=0;entryDy=0;" edge="1" parent="1" source="YaIeWCz2grbQUSvChIVx-3" target="YaIeWCz2grbQUSvChIVx-4">
          <mxGeometry width="80" relative="1" as="geometry">
            <mxPoint x="290" y="290" as="sourcePoint" />
            <mxPoint x="370" y="290" as="targetPoint" />
          </mxGeometry>
        </mxCell>
        <mxCell id="YaIeWCz2grbQUSvChIVx-9" value="Obecna data = data zakończenia" style="html=1;verticalAlign=bottom;endArrow=block;curved=0;rounded=0;exitX=0.5;exitY=1;exitDx=0;exitDy=0;entryX=0.5;entryY=0;entryDx=0;entryDy=0;" edge="1" parent="1" source="YaIeWCz2grbQUSvChIVx-4" target="YaIeWCz2grbQUSvChIVx-5">
          <mxGeometry width="80" relative="1" as="geometry">
            <mxPoint x="50" y="420" as="sourcePoint" />
            <mxPoint x="130" y="420" as="targetPoint" />
          </mxGeometry>
        </mxCell>
        <mxCell id="YaIeWCz2grbQUSvChIVx-10" value="Wejście w raport głosowania" style="html=1;verticalAlign=bottom;endArrow=block;curved=0;rounded=0;exitX=0.5;exitY=1;exitDx=0;exitDy=0;entryX=0.5;entryY=0;entryDx=0;entryDy=0;" edge="1" parent="1" source="YaIeWCz2grbQUSvChIVx-5" target="YaIeWCz2grbQUSvChIVx-7">
          <mxGeometry width="80" relative="1" as="geometry">
            <mxPoint x="200" y="490" as="sourcePoint" />
            <mxPoint x="280" y="490" as="targetPoint" />
          </mxGeometry>
        </mxCell>
        <mxCell id="YaIeWCz2grbQUSvChIVx-11" value="Usunięcie głosowania" style="html=1;verticalAlign=bottom;endArrow=block;curved=0;rounded=0;exitX=1;exitY=0.5;exitDx=0;exitDy=0;entryX=0;entryY=0.5;entryDx=0;entryDy=0;" edge="1" parent="1" source="YaIeWCz2grbQUSvChIVx-3" target="YaIeWCz2grbQUSvChIVx-6">
          <mxGeometry width="80" relative="1" as="geometry">
            <mxPoint x="280" y="240" as="sourcePoint" />
            <mxPoint x="360" y="240" as="targetPoint" />
          </mxGeometry>
        </mxCell>
        <mxCell id="YaIeWCz2grbQUSvChIVx-12" value="" style="ellipse;html=1;shape=endState;fillColor=#000000;strokeColor=#ff0000;" vertex="1" parent="1">
          <mxGeometry x="190" y="610" width="30" height="30" as="geometry" />
        </mxCell>
        <mxCell id="YaIeWCz2grbQUSvChIVx-13" value="" style="ellipse;html=1;shape=endState;fillColor=#000000;strokeColor=#ff0000;" vertex="1" parent="1">
          <mxGeometry x="540" y="215" width="30" height="30" as="geometry" />
        </mxCell>
      </root>
    </mxGraphModel>
  </diagram>
</mxfile>
